PathFileType	4	(X/Y/Z)	 New Session 106.trc
DataRate	CameraRate	NumFrames	NumMarkers	Units	OrigDataRate	OrigDataStartFrame	OrigNumFrames
100	100	14	14	m	100	272	724
Frame#	Time	C7			T8			IJ			PX			AA			AC			AI			TS			SC			GH			LE			ME			US			RS			
		X1	Y1	Z1	X2	Y2	Z2	X3	Y3	Z3	X4	Y4	Z4	X5	Y5	Z5	X6	Y6	Z6	X7	Y7	Z7	X8	Y8	Z8	X9	Y9	Z9	X10	Y10	Z10	X11	Y11	Z11	X12	Y12	Z12	X13	Y13	Z13	X14	Y14	Z14	
272	2.7200	-0.012605	0.107219	0.153302	0.011310	-0.107231	0.226039	-0.009843	-0.000291	-0.010658	0.010241	-0.144630	-0.071845	0.167028	0.069964	0.167937	0.117974	0.098834	0.091239	0.066046	0.041366	0.204497	0.090894	-0.078085	0.221626	0.013639	0.012214	-0.005687	0.162905	0.097562	0.132682	0.421570	0.085756	0.076681	0.446912	0.001422	0.111756	0.540938	-0.047274	-0.146725	0.462463	-0.045180	-0.160621	
273	2.7300	-0.012557	0.107275	0.153167	0.011479	-0.107111	0.226116	-0.009886	-0.000517	-0.010623	0.010234	-0.144775	-0.071955	0.167211	0.070423	0.167369	0.118158	0.098985	0.090575	0.066212	0.041793	0.204297	0.091087	-0.077830	0.221504	0.013559	0.012168	-0.005666	0.163226	0.097764	0.131862	0.421859	0.083885	0.075575	0.446762	0.000221	0.112588	0.540949	-0.055282	-0.144321	0.462205	-0.053032	-0.158659	
274	2.7400	-0.012483	0.107343	0.153014	0.011642	-0.106982	0.226185	-0.009960	-0.000725	-0.010613	0.010250	-0.144908	-0.072058	0.167447	0.070842	0.166732	0.118382	0.099147	0.089855	0.066382	0.042240	0.204060	0.091300	-0.077546	0.221346	0.013467	0.012112	-0.005698	0.163589	0.097963	0.130982	0.422166	0.081840	0.074482	0.446586	-0.001102	0.113466	0.540822	-0.063478	-0.141726	0.461991	-0.061167	-0.156385	
275	2.7500	-0.012390	0.107418	0.152855	0.011800	-0.106846	0.226244	-0.010048	-0.000904	-0.010643	0.010275	-0.145048	-0.072089	0.167733	0.071245	0.165989	0.118632	0.099282	0.089075	0.066528	0.042708	0.203741	0.091516	-0.077238	0.221163	0.013425	0.012025	-0.005817	0.163997	0.098171	0.130042	0.422494	0.079636	0.073418	0.446380	-0.002513	0.114393	0.540592	-0.071797	-0.138924	0.461830	-0.069597	-0.153753	
276	2.7600	-0.012294	0.107507	0.152697	0.011954	-0.106702	0.226294	-0.010127	-0.001073	-0.010684	0.010286	-0.145197	-0.072054	0.168032	0.071689	0.165173	0.118887	0.099364	0.088217	0.066694	0.043218	0.203358	0.091722	-0.076909	0.220980	0.013429	0.011954	-0.005928	0.164443	0.098399	0.129038	0.422843	0.077295	0.072384	0.446149	-0.003978	0.115374	0.540305	-0.080229	-0.135879	0.461696	-0.078291	-0.150754	
277	2.7700	-0.012189	0.107624	0.152522	0.012109	-0.106549	0.226336	-0.010180	-0.001256	-0.010703	0.010269	-0.145351	-0.071997	0.168354	0.072260	0.164375	0.119134	0.099398	0.087270	0.066950	0.043818	0.202990	0.091907	-0.076558	0.220811	0.013435	0.011932	-0.005971	0.164905	0.098652	0.127966	0.423220	0.074830	0.071373	0.445907	-0.005483	0.116408	0.539991	-0.088792	-0.132559	0.461560	-0.087197	-0.147416	
278	2.7800	-0.012060	0.107773	0.152303	0.012273	-0.106387	0.226373	-0.010211	-0.001456	-0.010689	0.010213	-0.145512	-0.071945	0.168746	0.073001	0.163654	0.119364	0.099417	0.086248	0.067233	0.044510	0.202625	0.092068	-0.076177	0.220659	0.013382	0.011903	-0.005992	0.165363	0.098933	0.126822	0.423625	0.072248	0.070381	0.445657	-0.007044	0.117499	0.539717	-0.097507	-0.128942	0.461401	-0.096264	-0.143787	
279	2.7900	-0.011925	0.107947	0.152036	0.012450	-0.106214	0.226406	-0.010250	-0.001654	-0.010666	0.010110	-0.145692	-0.071896	0.169151	0.073833	0.162954	0.119582	0.099486	0.085172	0.067496	0.045253	0.202265	0.092210	-0.075759	0.220515	0.013225	0.011750	-0.006035	0.165801	0.099236	0.125610	0.424043	0.069541	0.069410	0.445382	-0.008706	0.118643	0.539540	-0.106388	-0.125010	0.461219	-0.105461	-0.139890	
280	2.8000	-0.011833	0.108132	0.151757	0.012645	-0.106028	0.226437	-0.010309	-0.001821	-0.010685	0.009958	-0.145890	-0.071845	0.169437	0.074596	0.162104	0.119787	0.099628	0.084050	0.067737	0.045995	0.201916	0.092351	-0.075296	0.220366	0.012976	0.011402	-0.006120	0.166216	0.099541	0.124341	0.424446	0.066684	0.068464	0.445054	-0.010517	0.119820	0.539400	-0.115421	-0.120745	0.461034	-0.114783	-0.135697	
281	2.8100	-0.011820	0.108315	0.151489	0.012862	-0.105831	0.226464	-0.010395	-0.001957	-0.010762	0.009789	-0.146092	-0.071809	0.169633	0.075258	0.161057	0.119968	0.099794	0.082885	0.067958	0.046738	0.201526	0.092505	-0.074786	0.220205	0.012698	0.010933	-0.006235	0.166616	0.099827	0.123023	0.424812	0.063649	0.067558	0.444628	-0.012503	0.121005	0.539210	-0.124583	-0.116138	0.460850	-0.124227	-0.131188	
282	2.8200	-0.011863	0.108489	0.151211	0.013099	-0.105620	0.226485	-0.010535	-0.002095	-0.010874	0.009634	-0.146294	-0.071804	0.169844	0.075873	0.159880	0.120127	0.099941	0.081670	0.068153	0.047508	0.201064	0.092673	-0.074230	0.220022	0.012449	0.010505	-0.006377	0.167016	0.100078	0.121654	0.425138	0.060413	0.066720	0.444071	-0.014648	0.122214	0.538924	-0.133863	-0.111178	0.460645	-0.133773	-0.126376	
283	2.8300	-0.011906	0.108671	0.150882	0.013350	-0.105399	0.226494	-0.010742	-0.002257	-0.011033	0.009506	-0.146496	-0.071831	0.170076	0.076472	0.158632	0.120290	0.100063	0.080391	0.068328	0.048309	0.200527	0.092846	-0.073630	0.219808	0.012246	0.010198	-0.006559	0.167436	0.100293	0.120226	0.425437	0.056962	0.065989	0.443396	-0.016898	0.123514	0.538553	-0.143239	-0.105858	0.460389	-0.143390	-0.121274	
284	2.8400	-0.011917	0.108874	0.150484	0.013609	-0.105167	0.226490	-0.010995	-0.002425	-0.011263	0.009400	-0.146701	-0.071884	0.170307	0.077049	0.157341	0.120491	0.100182	0.079044	0.068471	0.049119	0.199907	0.093019	-0.072992	0.219558	0.012030	0.010017	-0.006736	0.167893	0.100489	0.118730	0.425720	0.053295	0.065398	0.442648	-0.019207	0.124960	0.538168	-0.152617	-0.100208	0.460061	-0.153043	-0.115870	
285	2.8500	-0.011912	0.109089	0.150054	0.013867	-0.104927	0.226468	-0.011258	-0.002578	-0.011567	0.009300	-0.146913	-0.071949	0.170563	0.077599	0.156022	0.120748	0.100309	0.077635	0.068635	0.049947	0.199238	0.093197	-0.072326	0.219265	0.011785	0.009876	-0.006921	0.168399	0.100680	0.117169	0.425986	0.049443	0.064958	0.441856	-0.021576	0.126524	0.537814	-0.161881	-0.094291	0.459655	-0.162698	-0.110135	
